<svg
    width="144"
    height="89"
    viewBox="0 0 144 89"
    fill="none"
    xmlns="http://www.w3.org/2000/svg"
  >
    <rect
      x="40.8864"
      y="1"
      width="60.3864"
      height="27"
      stroke="#00D95A"
      stroke-width="1"
    />
    <rect
      x="1"
      y="1"
      width="141.182"
      height="56"
      stroke="#00D95A"
      stroke-width="1"
    />
    <mask id="path-3-inside-1_274_2669" fill="white">
      <path d="M102.273 57.5C102.273 65.8543 98.9863 73.8665 93.1364 79.7739C87.2866 85.6813 79.3525 89 71.0795 89C62.8066 89 54.8725 85.6813 49.0226 79.7739C43.1728 73.8665 39.8864 65.8543 39.8864 57.5L71.0795 57.5H102.273Z" />
    </mask>
    <path
      d="M102.273 57.5C102.273 65.8543 98.9863 73.8665 93.1364 79.7739C87.2866 85.6813 79.3525 89 71.0795 89C62.8066 89 54.8725 85.6813 49.0226 79.7739C43.1728 73.8665 39.8864 65.8543 39.8864 57.5L71.0795 57.5H102.273Z"
      stroke="#00D95A"
      stroke-width="2"
      mask="url(#path-3-inside-1_274_2669)"
    />
  </svg>